# Blender v2.78 (sub 0) OBJ File: 'tv3.blend'
# www.blender.org
o Chushion.218_Untitled.253
v -0.145463 0.021651 -0.010267
v -0.145463 0.497393 -0.010267
v 0.161105 0.021651 -0.043235
v 0.161105 0.497393 -0.043235
v -0.136961 0.021651 0.068798
v -0.136961 0.497393 0.068798
v 0.169608 0.021651 0.035829
v 0.169608 0.497393 0.035829
v 0.007724 0.016245 -0.027649
v -0.149042 0.259522 -0.010791
v 0.007724 0.502799 -0.027649
v 0.164492 0.259522 -0.044508
v 0.168840 0.016245 -0.004078
v 0.168840 0.502799 -0.004078
v 0.173187 0.259522 0.036353
v 0.016420 0.016245 0.053212
v 0.016420 0.502799 0.053212
v -0.140347 0.259522 0.070071
v -0.144696 0.016245 0.029640
v -0.144696 0.502799 0.029640
v 0.012072 0.519017 0.012782
v 0.012072 0.000026 0.012782
v -0.155146 0.259522 0.030764
v 0.016710 0.259522 0.055908
v 0.179290 0.259522 -0.005201
v 0.007433 0.259522 -0.030345
v -0.075885 0.016245 -0.018657
v -0.149042 0.389270 -0.010791
v 0.091335 0.502799 -0.036641
v 0.164492 0.129774 -0.044508
v 0.166520 0.016245 -0.025641
v 0.171159 0.502799 0.017486
v 0.173187 0.129774 0.036353
v 0.100029 0.016245 0.044221
v -0.067189 0.502799 0.062203
v -0.140347 0.129774 0.070071
v -0.142377 0.016245 0.051204
v -0.147014 0.502799 0.008077
v 0.091335 0.016245 -0.036641
v -0.149042 0.129774 -0.010791
v -0.075885 0.502799 -0.018657
v 0.164492 0.389270 -0.044508
v 0.171159 0.016245 0.017486
v 0.166520 0.502799 -0.025641
v 0.173187 0.389270 0.036353
v -0.067189 0.016245 0.062203
v 0.100029 0.502799 0.044221
v -0.140347 0.389270 0.070071
v -0.147014 0.016245 0.008077
v -0.142377 0.502799 0.051203
v -0.071537 0.519017 0.021773
v 0.095681 0.519017 0.003789
v 0.014391 0.519017 0.034345
v 0.009752 0.519017 -0.008782
v -0.071537 0.000026 0.021773
v 0.095681 0.000026 0.003789
v 0.009752 0.000026 -0.008782
v 0.014391 0.000026 0.034345
v -0.157466 0.259522 0.009201
v -0.152827 0.259522 0.052328
v -0.155146 0.129774 0.030764
v -0.155146 0.389270 0.030764
v -0.066899 0.259522 0.064899
v 0.100319 0.259522 0.046916
v 0.016710 0.129774 0.055908
v 0.016710 0.389270 0.055908
v 0.181609 0.259522 0.016361
v 0.176972 0.259522 -0.026765
v 0.179290 0.129774 -0.005201
v 0.179290 0.389270 -0.005201
v 0.091044 0.259522 -0.039337
v -0.076176 0.259522 -0.021354
v 0.007433 0.129774 -0.030345
v 0.007433 0.389270 -0.030345
v -0.076176 0.389270 -0.021354
v -0.076176 0.129774 -0.021354
v 0.091044 0.129774 -0.039337
v 0.176972 0.389270 -0.026765
v 0.176972 0.129774 -0.026765
v 0.181609 0.129774 0.016361
v 0.100319 0.389270 0.046916
v 0.100319 0.129774 0.046916
v -0.066899 0.129774 0.064899
v -0.152827 0.389270 0.052328
v -0.152827 0.129774 0.052328
v -0.157466 0.129774 0.009201
v 0.098001 0.000026 0.025353
v 0.093362 0.000026 -0.017773
v -0.073856 0.000026 0.000210
v 0.093362 0.519017 -0.017773
v 0.098001 0.519017 0.025353
v -0.069218 0.519017 0.043336
v -0.073856 0.519017 0.000210
v -0.069218 0.000026 0.043336
v -0.157466 0.389270 0.009201
v -0.066899 0.389270 0.064899
v 0.181609 0.389270 0.016361
v 0.091044 0.389270 -0.039337
vn -0.2140 0.9766 0.0230
vn 0.0000 1.0000 0.0000
vn 0.2140 0.9766 -0.0230
vn -0.0702 0.0095 -0.9975
vn 0.9211 0.0324 0.3880
vn 0.0702 0.0095 0.9975
vn -0.9211 0.0324 -0.3881
vn -0.1691 -0.9263 0.3367
vn -0.2369 0.9263 -0.2930
vn -0.0695 0.7602 -0.6460
vn -0.2140 -0.9766 0.0230
vn 0.0000 -1.0000 0.0000
vn 0.0695 -0.7602 0.6460
vn -0.9215 0.0000 -0.3883
vn -0.9943 0.0000 0.1069
vn -0.9900 0.0922 0.1065
vn 0.0702 0.0000 0.9975
vn 0.1069 0.0000 0.9943
vn 0.1069 0.0239 0.9940
vn 0.9216 0.0000 0.3882
vn 0.9943 0.0000 -0.1069
vn 0.9900 0.0922 -0.1064
vn -0.0702 0.0000 -0.9975
vn -0.1069 0.0000 -0.9943
vn -0.1069 0.0239 -0.9940
vn -0.1435 0.0000 -0.9897
vn -0.1435 0.0095 -0.9896
vn -0.1069 -0.0239 -0.9940
vn -0.1215 -0.0239 -0.9923
vn -0.0922 -0.0239 -0.9955
vn 0.8179 0.0000 -0.5753
vn 0.8175 0.0324 -0.5750
vn 0.9900 -0.0922 -0.1065
vn 0.9438 -0.0900 -0.3181
vn 0.9898 -0.0900 0.1102
vn 0.1435 0.0000 0.9897
vn 0.1435 0.0095 0.9896
vn 0.1069 -0.0239 0.9940
vn 0.1215 -0.0239 0.9923
vn 0.0922 -0.0239 0.9955
vn -0.8179 0.0000 0.5753
vn -0.8175 0.0324 0.5750
vn -0.9900 -0.0922 0.1065
vn -0.9438 -0.0900 0.3182
vn -0.9898 -0.0900 -0.1103
vn -0.9900 -0.0922 0.1064
vn 0.2140 -0.9766 -0.0230
vn 0.2369 -0.9263 0.2930
vn -0.0695 -0.7602 -0.6460
vn -0.0028 -0.7585 -0.6517
vn -0.1358 -0.7585 -0.6374
vn 0.1691 0.9263 -0.3367
vn 0.0695 0.7602 0.6460
vn 0.1358 0.7585 0.6374
vn 0.0028 0.7585 0.6517
vn 0.9900 0.0922 -0.1065
vn -0.0922 0.0239 -0.9955
vn 0.9898 0.0900 0.1102
vn 0.0922 0.0239 0.9955
vn -0.9898 0.0900 -0.1103
vn 0.0028 -0.7585 0.6517
vn -0.1358 0.7585 -0.6374
vn -0.1215 0.0239 -0.9923
vn -0.1435 -0.0095 -0.9896
vn -0.0702 -0.0095 -0.9975
vn 0.9438 0.0900 -0.3181
vn 0.9900 -0.0922 -0.1064
vn 0.8175 -0.0324 -0.5750
vn 0.9211 -0.0324 0.3880
vn 0.1215 0.0239 0.9923
vn 0.1435 -0.0095 0.9896
vn 0.0702 -0.0095 0.9975
vn -0.9438 0.0900 0.3182
vn -0.8175 -0.0324 0.5750
vn -0.9211 -0.0324 -0.3881
vn 0.1358 -0.7585 0.6374
vn 0.1692 -0.9263 -0.3367
vn -0.2369 -0.9263 -0.2930
vn -0.0028 0.7585 -0.6517
vn 0.2369 0.9263 0.2930
vn -0.1691 0.9263 0.3367
vn -0.9900 0.0922 0.1064
s off
f 51//1 50//1 92//1
f 52//2 53//2 91//2
f 90//2 21//2 52//2
f 44//3 52//3 14//3
f 14//3 91//3 32//3
f 21//2 92//2 53//2
f 93//1 20//1 51//1
f 54//2 51//2 21//2
f 51//1 20//1 50//1
f 52//2 21//2 53//2
f 90//2 54//2 21//2
f 44//3 90//3 52//3
f 14//3 52//3 91//3
f 21//2 51//2 92//2
f 93//1 38//1 20//1
f 54//2 93//2 51//2
f 98//4 4//4 42//4
f 97//5 8//5 45//5
f 96//6 6//6 48//6
f 95//7 2//7 28//7
f 94//8 5//8 37//8
f 93//9 2//9 38//9
f 90//10 11//10 54//10
f 89//11 19//11 49//11
f 88//12 22//12 57//12
f 34//13 58//13 87//13
f 59//14 40//14 86//14
f 60//15 61//15 85//15
f 50//16 62//16 84//16
f 63//17 36//17 83//17
f 64//18 65//18 82//18
f 47//19 66//19 81//19
f 67//20 33//20 80//20
f 68//21 69//21 79//21
f 44//22 70//22 78//22
f 71//23 30//23 77//23
f 72//24 73//24 76//24
f 41//25 74//25 75//25
f 75//24 26//24 72//24
f 10//26 75//26 72//26
f 2//27 75//27 28//27
f 27//28 73//28 9//28
f 1//29 76//29 27//29
f 40//26 72//26 76//26
f 77//30 3//30 39//30
f 9//28 77//28 39//28
f 26//24 77//24 73//24
f 78//21 25//21 68//21
f 42//31 68//31 12//31
f 4//32 78//32 42//32
f 31//33 69//33 13//33
f 3//34 79//34 31//34
f 12//31 79//31 30//31
f 80//35 7//35 43//35
f 13//33 80//33 43//33
f 25//21 80//21 69//21
f 81//18 24//18 64//18
f 45//36 64//36 15//36
f 8//37 81//37 45//37
f 34//38 65//38 16//38
f 7//39 82//39 34//39
f 15//36 82//36 33//36
f 83//40 5//40 46//40
f 16//38 83//38 46//38
f 24//18 83//18 65//18
f 84//15 23//15 60//15
f 48//41 60//41 18//41
f 6//42 84//42 48//42
f 85//43 19//43 37//43
f 5//44 85//44 37//44
f 18//41 85//41 36//41
f 86//45 1//45 49//45
f 19//46 86//46 49//46
f 61//15 59//15 86//15
f 56//12 58//12 22//12
f 13//47 87//47 56//47
f 7//48 87//48 43//48
f 88//49 9//49 39//49
f 3//50 88//50 39//50
f 31//47 56//47 88//47
f 89//51 1//51 27//51
f 57//49 27//49 9//49
f 57//12 55//12 89//12
f 4//52 90//52 44//52
f 47//53 53//53 17//53
f 8//54 91//54 47//54
f 92//55 6//55 35//55
f 17//53 92//53 35//53
f 54//10 41//10 93//10
f 55//11 37//11 19//11
f 22//12 94//12 55//12
f 16//13 94//13 58//13
f 95//14 10//14 59//14
f 23//15 95//15 59//15
f 20//16 95//16 62//16
f 96//17 18//17 63//17
f 66//18 63//18 24//18
f 17//19 96//19 66//19
f 97//20 15//20 67//20
f 70//21 67//21 25//21
f 14//56 97//56 70//56
f 98//23 12//23 71//23
f 74//24 71//24 26//24
f 11//25 98//25 74//25
f 98//57 29//57 4//57
f 97//58 32//58 8//58
f 96//59 35//59 6//59
f 95//60 38//60 2//60
f 94//61 46//61 5//61
f 93//62 41//62 2//62
f 90//10 29//10 11//10
f 89//11 55//11 19//11
f 88//12 56//12 22//12
f 34//13 16//13 58//13
f 59//14 10//14 40//14
f 60//15 23//15 61//15
f 50//16 20//16 62//16
f 63//17 18//17 36//17
f 64//18 24//18 65//18
f 47//19 17//19 66//19
f 67//20 15//20 33//20
f 68//21 25//21 69//21
f 44//56 14//56 70//56
f 71//23 12//23 30//23
f 72//24 26//24 73//24
f 41//25 11//25 74//25
f 75//24 74//24 26//24
f 10//26 28//26 75//26
f 2//63 41//63 75//63
f 27//28 76//28 73//28
f 1//64 40//64 76//64
f 40//26 10//26 72//26
f 77//65 30//65 3//65
f 9//28 73//28 77//28
f 26//24 71//24 77//24
f 78//21 70//21 25//21
f 42//31 78//31 68//31
f 4//66 44//66 78//66
f 31//67 79//67 69//67
f 3//68 30//68 79//68
f 12//31 68//31 79//31
f 80//69 33//69 7//69
f 13//33 69//33 80//33
f 25//21 67//21 80//21
f 81//18 66//18 24//18
f 45//36 81//36 64//36
f 8//70 47//70 81//70
f 34//38 82//38 65//38
f 7//71 33//71 82//71
f 15//36 64//36 82//36
f 83//72 36//72 5//72
f 16//38 65//38 83//38
f 24//18 63//18 83//18
f 84//15 62//15 23//15
f 48//41 84//41 60//41
f 6//73 50//73 84//73
f 85//43 61//43 19//43
f 5//74 36//74 85//74
f 18//41 60//41 85//41
f 86//75 40//75 1//75
f 19//43 61//43 86//43
f 61//15 23//15 59//15
f 56//12 87//12 58//12
f 13//47 43//47 87//47
f 7//76 34//76 87//76
f 88//49 57//49 9//49
f 3//77 31//77 88//77
f 31//47 13//47 56//47
f 89//78 49//78 1//78
f 57//49 89//49 27//49
f 57//12 22//12 55//12
f 4//79 29//79 90//79
f 47//53 91//53 53//53
f 8//80 32//80 91//80
f 92//81 50//81 6//81
f 17//53 53//53 92//53
f 54//10 11//10 41//10
f 55//11 94//11 37//11
f 22//12 58//12 94//12
f 16//13 46//13 94//13
f 95//14 28//14 10//14
f 23//15 62//15 95//15
f 20//82 38//82 95//82
f 96//17 48//17 18//17
f 66//18 96//18 63//18
f 17//19 35//19 96//19
f 97//20 45//20 15//20
f 70//21 97//21 67//21
f 14//56 32//56 97//56
f 98//23 42//23 12//23
f 74//24 98//24 71//24
f 11//25 29//25 98//25
